<?xml version="1.0" encoding="utf-8"?>
<!-- Generator: Adobe Illustrator 19.1.0, SVG Export Plug-In . SVG Version: 6.00 Build 0)  -->
<svg version="1.1" id="Layer_1" xmlns="http://www.w3.org/2000/svg" xmlns:xlink="http://www.w3.org/1999/xlink" x="0px" y="0px"
	 viewBox="0 0 187 62.7" style="enable-background:new 0 0 187 62.7;" xml:space="preserve">
<style type="text/css">
	.st0{fill-rule:evenodd;clip-rule:evenodd;fill:url(#SVGID_1_);}
	.st1{fill:#494542;}
</style>
<g>
	<linearGradient id="SVGID_1_" gradientUnits="userSpaceOnUse" x1="73.9617" y1="31.8029" x2="183.0908" y2="31.1361">
		<stop  offset="0" style="stop-color:#62C5F0"/>
		<stop  offset="0.164" style="stop-color:#4AADDF"/>
		<stop  offset="0.4653" style="stop-color:#2387C3"/>
		<stop  offset="0.7061" style="stop-color:#0B6FB1"/>
		<stop  offset="0.8545" style="stop-color:#0266AB"/>
	</linearGradient>
	<path class="st0" d="M124.6,6.7c3.6,0,7.2,0,10.8,0c13.6,0.5,26.9,2,38.2,5.2c3.5,1,7.8,1.8,9.1,5.4c0,0.5,0,1,0,1.5
		c-0.7,2.9-3.9,4.5-5.8,6.1c-0.1,0.1-1,0.7-1.4,1c-4.8,3.3-9.5,6.6-13.8,10.5c-0.2,0.1-1.7,1.6-2,1.9c-4.8,4.5-9.6,9.7-13.3,15.4
		c-0.6,0.8-1.1,1.7-1.7,2.5c-2.3-5-4.6-10.1-7-15c3.7-6.7,8.2-12.6,13.1-18.1c-6.6-0.8-14.2-0.7-21.7-0.7c-2-5.5-4.4-10.2-6.8-15.5
		C122.2,6.8,122.3,6.7,124.6,6.7z M115.5,7.3c-11.9,1.3-21.4,3.9-31,7.5c-0.8,0.3-5.5,2.3-7.1,3.3c-1.3,0.8-3.6,2.6-2.7,4.2
		c0.6,1.1,5.7,0.9,7.7,0.8c17-0.5,15.4-0.5,26.7-0.8C109.2,21.7,113.6,11.7,115.5,7.3z"/>
	<g>
		<path class="st1" d="M17.4,29.1h6.3l10.9,27.7h-6.2L26,50.4H14.8l-2.4,6.4H6.6L17.4,29.1z M20.4,34.6L20.4,34.6l-4.1,11.4h8.1
			L20.4,34.6z"/>
		<path class="st1" d="M56.4,56.8h-5V54h-0.1c-1.7,2.1-3.9,3.2-6.7,3.3c-2.4,0-4.2-0.8-5.2-2.3c-1.1-1.5-1.7-3.4-1.7-5.7V36.3h5.3
			v10.9c0,0.3,0,0.6,0.1,0.9c0,0.3,0,0.6,0,1c0.1,0.7,0.2,1.3,0.4,1.9c0.2,0.6,0.6,1.1,1,1.4c0.5,0.4,1.1,0.6,1.9,0.6
			c1,0,1.8-0.3,2.4-0.8c0.6-0.5,1.1-1,1.4-1.7c0.4-0.7,0.6-1.4,0.7-2.2c0.1-0.8,0.2-1.5,0.2-2.1v-10h5.3V56.8z"/>
		<path class="st1" d="M74,40.6c-0.8-0.3-1.5-0.5-2.2-0.7c-0.7-0.1-1.6-0.2-2.5-0.2c-0.7,0-1.4,0.1-2.1,0.4c-0.7,0.3-1,1-1.1,1.8
			c0,0.8,0.5,1.3,1.5,1.6c0.4,0.2,1,0.4,1.5,0.5s1.1,0.3,1.7,0.6c0.6,0.2,1.2,0.4,1.7,0.7c0.5,0.3,1,0.7,1.4,1.1
			c0.4,0.5,0.8,1,1.1,1.6c0.2,0.7,0.4,1.5,0.4,2.4c-0.1,2.4-0.9,4.1-2.6,5.1c-1.7,1-3.7,1.5-6,1.5c-2,0-4-0.3-6-0.9l0.3-4.4
			c1.7,0.9,3.4,1.3,5.2,1.3c0.7,0,1.5-0.2,2.3-0.6c0.8-0.3,1.2-1,1.2-1.9c0-0.5-0.1-1-0.4-1.3c-0.3-0.3-0.6-0.6-1.1-0.8
			c-0.9-0.4-2-0.7-3.2-1c-0.6-0.2-1.1-0.4-1.7-0.7c-0.6-0.3-1.1-0.6-1.5-1c-0.5-0.4-0.8-1-1-1.6c-0.3-0.6-0.4-1.4-0.4-2.3
			c0-2.2,0.9-3.8,2.5-4.8c1.5-1,3.4-1.5,5.5-1.5c1.2,0,2.3,0.1,3.3,0.2c0.9,0.2,1.7,0.3,2.5,0.6L74,40.6z"/>
		<path class="st1" d="M81.2,40.2h-3.9v-3.9h3.9v-4.1l5.3-1.7v5.8h4.7v3.9h-4.7v9.5c0,0.9,0.1,1.7,0.5,2.3c0.3,0.7,1,1,2,1.1
			c1,0,1.8-0.2,2.4-0.6l0.2,4.2c-1.1,0.3-2.4,0.5-3.9,0.5c-4.3-0.1-6.4-2.3-6.5-6.6V40.2z"/>
		<path class="st1" d="M108.2,40.8c-0.5-0.2-1-0.4-1.5-0.6c-0.6-0.1-1.3-0.2-2.1-0.2c-1.6,0-2.9,0.6-3.9,1.7c-1,1.2-1.5,2.7-1.5,4.7
			c0,1.9,0.5,3.5,1.4,4.7c0.9,1.3,2.3,1.9,4.1,1.9c0.8,0,1.5-0.1,2.3-0.4c0.7-0.2,1.3-0.4,1.8-0.6l0.2,4.4c-0.7,0.2-1.5,0.4-2.4,0.5
			c-0.8,0.1-1.8,0.2-2.9,0.2c-3.3,0-5.8-1.1-7.5-3.1c-1.7-2-2.6-4.6-2.6-7.7c0-3,0.9-5.6,2.6-7.5c1.7-2,4.1-3,7.3-3.1
			c2.1,0,3.8,0.2,5.2,0.7L108.2,40.8z"/>
		<path class="st1" d="M114.4,38.7c2-1.9,4.5-2.8,7.6-2.9c3.1,0,5.7,1,7.7,2.9c2,1.9,3,4.6,3.1,8c0,3-0.9,5.5-2.8,7.5
			c-1.9,2-4.5,3-7.9,3.1c-3.4-0.1-6-1.1-7.9-3.1c-1.9-2-2.8-4.5-2.8-7.5C111.3,43.3,112.3,40.6,114.4,38.7z M116.9,47.3
			c0.1,0.4,0.1,0.9,0.2,1.3c0.2,0.8,0.4,1.6,0.8,2.3c0.4,0.7,0.9,1.2,1.6,1.6c0.6,0.5,1.5,0.7,2.5,0.7c1,0,1.9-0.2,2.6-0.6
			c0.7-0.4,1.2-0.9,1.6-1.6c0.4-0.7,0.7-1.5,0.8-2.3c0.1-0.8,0.2-1.7,0.2-2.5c0-1.6-0.4-3.1-1.2-4.2c-0.9-1.2-2.2-1.8-3.9-1.8
			c-1.7,0-3,0.6-3.8,1.9c-0.9,1.2-1.3,2.6-1.3,4.2C116.8,46.5,116.8,46.9,116.9,47.3z"/>
	</g>
</g>
</svg>
