<?xml version="1.0" encoding="UTF-8"?>
<svg id="Calque_1" data-name="Calque 1" xmlns="http://www.w3.org/2000/svg" viewBox="0 0 120 63">
  <defs>
    <style>
      .cls-1, .cls-2 {
        fill-rule: evenodd;
      }

      .cls-1, .cls-3 {
        fill: #1a171b;
      }

      .cls-2 {
        fill: #ffec00;
      }
    </style>
  </defs>
  <g>
    <path class="cls-2" d="M119.48,38.5c0,1.91-1.6,3.53-3.63,3.53H4.11c-1.9,0-3.6-1.61-3.6-3.53V5.7c0-1.95,1.69-3.53,3.6-3.53h111.75c2.03,0,3.63,1.58,3.63,3.53v32.8Z"/>
    <path d="M115.86,42.2H4.11c-2.01,0-3.77-1.73-3.77-3.7V5.7C.34,3.69,2.07,2,4.11,2h111.75c2.09,0,3.8,1.66,3.8,3.7v32.8c0,2.04-1.7,3.7-3.8,3.7ZM4.11,2.34c-1.86,0-3.43,1.54-3.43,3.35v32.8c0,1.79,1.6,3.35,3.43,3.35h111.75c1.91,0,3.46-1.5,3.46-3.35V5.7c0-1.85-1.55-3.35-3.46-3.35H4.11Z"/>
  </g>
  <path class="cls-1" d="M33.52,17.52c.7-.61,1.06-1.55,1.06-2.46,0-2.1-1.75-3.8-3.99-3.8h-8.8l-5.14,17.91c-.24.76-.94,1.31-1.78,1.31-1,0-1.75-.79-1.75-1.79l5.44-19.18c.3-.85,1.09-1.49,2.09-1.49l11.03-.06c3.69,0,6.68,3.07,6.68,6.87,0,2.86-2.63,5.56-4.14,6.48h0c1.45,1.16,2.36,3.01,2.36,5.02,0,1.46-.85,3.22-1.15,3.77h-.06c-1.78,2.8-4.99,4.56-9.07,4.56l-16.32-.06c-.94,0-1.78-.7-1.78-1.64,0-1,.85-1.76,1.78-1.76l16.81.06c2.9,0,5.05-1.46,5.8-3.31l.15-.4c.09-.3.18-.55.18-1,0-1.92-1.69-3.56-3.84-3.56h-5.08c-.91,0-1.69-.85-1.69-1.73,0-1,.79-1.79,1.69-1.79h5.59c1.63-.15,2.99-.82,3.84-1.76l.09-.15Z"/>
  <path class="cls-1" d="M55.77,19.1h-10.88c-1.78,0-3.29,1.03-3.78,2.49l-3.05,9.82v.4c0,1.46,1.21,2.68,2.81,2.83h11.3c1.84,0,3.36-1.12,3.84-2.58l2.9-10.12c0-1.61-1.36-2.83-3.14-2.83ZM52.56,30.78c0,.24-.24.49-.48.49h-10.49l2.57-8.33c0-.24.24-.49.48-.49h10.43l-2.51,8.33Z"/>
  <path class="cls-1" d="M80.71,12.72c-.97-.24-1.84.15-2.09.97l-1.54,5.26v.15h-11.27c-1.78,0-3.29,1.03-3.78,2.49l-2.96,9.76c-.06.15-.06.3-.06.4,0,1.46,1.18,2.65,2.78,2.83h11.3c1.84,0,3.36-1.06,3.84-2.58l2.9-10.06.94-3.22,1.15-4.04c.21-.82-.33-1.7-1.21-1.95ZM73.48,30.68c0,.33-.24.49-.48.49h-10.43l2.51-8.24c0-.24.24-.49.48-.49h10.4l-2.48,8.24Z"/>
  <path class="cls-1" d="M99.39,28.19l1.84-6.32c0-1.55-1.36-2.83-3.14-2.83h-10.88c-1.78,0-3.29,1.03-3.84,2.49l-2.99,9.73v.39c0,1.46,1.21,2.68,2.75,2.83h11.36c1.84,0,3.36-1.12,3.84-2.58l.18-.64h-14.6l.82-2.98,14.66-.09ZM86.57,22.96c0-.24.24-.49.45-.49h10.43l-.79,2.83-10.82-.09.73-2.25Z"/>
  <path class="cls-1" d="M109.87,34.58c.94,0,1.66-.73,1.66-1.61s-.73-1.61-1.66-1.61h-5.08l2.57-8.82h3.3c.97,0,1.69-.76,1.69-1.73s-.73-1.7-1.69-1.7h-2.24l.06-.33,1.15-4.01c.24-.82-.33-1.7-1.3-1.95h0c-.88-.24-1.84.15-1.99.97l-1.54,5.23-3.75,12.98c-.15,1.46,1.12,2.58,2.48,2.58h6.35Z"/>
  <g>
    <path class="cls-3" d="M84.08,49.45h-3.69l.57-2.02h9.69l-.57,2.02h-3.71l-3.12,11.35h-2.31l3.14-11.35Z"/>
    <path class="cls-3" d="M88.2,60.8l2.66-9.66h2.31l-2.68,9.66h-2.29ZM91.46,48.52c.07-.83.75-1.41,1.5-1.41.71,0,1.18.52,1.11,1.25-.09.85-.77,1.39-1.54,1.39-.71,0-1.16-.52-1.08-1.23Z"/>
    <path class="cls-3" d="M93.11,60.8l1.8-6.67c.32-1.15.56-2.16.73-3h1.99l-.34,1.69h.02c1.02-1.29,2.26-1.91,3.5-1.91,1.5,0,2.11.95,2.1,1.98.96-1.33,2.24-1.96,3.57-1.98,1.32,0,2.27.85,2.12,2.58-.04.42-.18,1.13-.3,1.65l-1.56,5.66h-2.23l1.48-5.4c.09-.4.21-.83.25-1.23.07-.81-.22-1.37-1.06-1.37-1.05,0-2.33,1.33-2.88,3.37l-1.27,4.62h-2.21l1.5-5.48c.11-.4.19-.77.22-1.13.06-.73-.1-1.39-1.02-1.39-1.07,0-2.41,1.45-2.94,3.41l-1.23,4.58h-2.23Z"/>
    <path class="cls-3" d="M116.9,60.25c-.99.5-2.3.75-3.46.75-2.66,0-3.8-1.63-3.6-3.99.25-2.92,2.66-6.09,5.98-6.09,1.89,0,3,1.11,2.86,2.72-.22,2.48-2.87,3.27-6.57,3.19-.07.34-.05.99.14,1.37.32.65.98.99,1.89.99,1.09,0,1.98-.28,2.7-.64l.07,1.69ZM115.37,52.65c-1.44,0-2.5,1.29-2.88,2.46,2.36.04,3.91-.3,4.01-1.45.06-.64-.41-1.01-1.14-1.01Z"/>
  </g>
</svg>