<?xml version="1.0" encoding="utf-8"?>
<!-- Generator: Adobe Illustrator 27.3.1, SVG Export Plug-In . SVG Version: 6.00 Build 0)  -->
<svg version="1.1" id="Calque_1" xmlns="http://www.w3.org/2000/svg" xmlns:xlink="http://www.w3.org/1999/xlink" x="0px" y="0px"
	 viewBox="0 0 841.9 431.5" style="enable-background:new 0 0 841.9 431.5;" xml:space="preserve">
<style type="text/css">
	.st0{fill-rule:evenodd;clip-rule:evenodd;fill:#FFEC00;stroke:#000000;stroke-width:2.36;}
	.st1{fill-rule:evenodd;clip-rule:evenodd;fill:#1A171B;}
	.st2{enable-background:new    ;}
	.st3{fill:#FFFFFF;}
</style>
<path class="st0" d="M833.7,260.3c0,13.1-11.1,24.2-25,24.2H37c-13.1,0-24.8-11.1-24.8-24.2V35.1c0-13.4,11.7-24.2,24.8-24.2h771.7
	c14,0,25,10.9,25,24.2L833.7,260.3L833.7,260.3z"/>
<path class="st1" d="M240.1,116.3c4.8-4.2,7.3-10.7,7.3-16.9c0-14.4-12.1-26.1-27.6-26.1h-60.7l-35.5,122.9c-1.7,5.2-6.5,9-12.3,9
	c-6.9,0-12.1-5.4-12.1-12.3l37.6-131.7c2.1-5.8,7.5-10.2,14.4-10.2l76.2-0.4c25.5,0,46.1,21.1,46.1,47.2c0,19.6-18.2,38.2-28.6,44.5
	l0,0c10,7.9,16.3,20.7,16.3,34.4c0,10-5.8,22.1-7.9,25.9h-0.4c-12.3,19.2-34.4,31.3-62.6,31.3l-112.7-0.4c-6.5,0-12.3-4.8-12.3-11.3
	c0-6.9,5.8-12.1,12.3-12.1l116.1,0.4c20,0,34.9-10,40.1-22.8l1-2.7c0.6-2.1,1.2-3.8,1.2-6.9c0-13.1-11.7-24.4-26.5-24.4h-35.1
	c-6.3,0-11.7-5.9-11.7-11.9c0-6.9,5.4-12.3,11.7-12.3h38.6c11.3-1,20.7-5.6,26.5-12.1L240.1,116.3L240.1,116.3z"/>
<path class="st1" d="M393.7,127.1h-75.1c-12.3,0-22.8,7.1-26.1,17.1l-21.1,67.4v2.7c0,10,8.4,18.4,19.4,19.4h78.1
	c12.7,0,23.2-7.7,26.5-17.7l20-69.5C415.4,135.5,406,127.1,393.7,127.1L393.7,127.1z M371.6,207.3c0,1.7-1.7,3.3-3.3,3.3h-72.4
	l17.7-57.2c0-1.7,1.7-3.3,3.3-3.3h72L371.6,207.3L371.6,207.3z"/>
<path class="st1" d="M565.9,83.3c-6.7-1.7-12.7,1-14.4,6.7l-10.7,36.1v1H463c-12.3,0-22.8,7.1-26.1,17.1l-20.5,67
	c-0.4,1-0.4,2.1-0.4,2.7c0,10,8.1,18.2,19.2,19.4h78.1c12.7,0,23.2-7.3,26.5-17.7l20-69.1l6.5-22.1l7.9-27.8
	C575.7,91,572,85,565.9,83.3L565.9,83.3z M516,206.7c0,2.3-1.7,3.3-3.3,3.3h-72l17.3-56.6c0-1.7,1.7-3.3,3.3-3.3h71.8L516,206.7
	L516,206.7z"/>
<path class="st1" d="M694.9,189.6l12.7-43.4c0-10.6-9.4-19.4-21.7-19.4h-75.2c-12.3,0-22.8,7.1-26.5,17.1l-20.7,66.8v2.7
	c0,10,8.3,18.4,19,19.4h78.5c12.7,0,23.2-7.7,26.5-17.7l1.2-4.4H588l5.6-20.5L694.9,189.6L694.9,189.6z M606.4,153.6
	c0-1.7,1.7-3.3,3.1-3.3h72l-5.4,19.4l-74.7-0.6L606.4,153.6L606.4,153.6z"/>
<path class="st1" d="M767.3,233.4c6.5,0,11.5-5,11.5-11.1s-5-11.1-11.5-11.1h-35.1l17.7-60.5h22.8c6.7,0,11.7-5.2,11.7-11.9
	s-5-11.7-11.7-11.7h-15.5l0.4-2.3l7.9-27.6c1.7-5.6-2.3-11.7-9-13.4l0,0c-6-1.7-12.7,1-13.8,6.7l-10.7,35.9l-25.9,89.1
	c-1,10,7.7,17.7,17.1,17.7L767.3,233.4L767.3,233.4z"/>
<g class="st2">
	<path class="st3" d="M589.3,335.2h-25.6l4-14h67.2l-4,14h-25.7l-21.6,78.2h-16L589.3,335.2z"/>
</g>
<g class="st2">
	<path class="st3" d="M617.9,413.5l18.4-66.6h16l-18.5,66.6H617.9z M640.5,328.8c0.5-5.7,5.2-9.7,10.4-9.7c4.9,0,8.2,3.6,7.7,8.6
		c-0.7,5.9-5.4,9.6-10.7,9.6C643.1,337.3,639.9,333.7,640.5,328.8z"/>
	<path class="st3" d="M652,413.5l12.5-46c2.2-7.9,3.9-14.9,5.1-20.7h13.8l-2.4,11.6h0.1c7.1-8.9,15.6-13.1,24.3-13.1
		c10.4,0,14.6,6.6,14.5,13.7c6.7-9.2,15.5-13.5,24.7-13.7c9.2,0,15.8,5.9,14.7,17.8c-0.3,2.9-1.2,7.8-2.1,11.4l-10.8,39H731
		l10.2-37.2c0.6-2.7,1.5-5.7,1.7-8.5c0.5-5.6-1.5-9.4-7.4-9.4c-7.2,0-16.1,9.2-20,23.3l-8.8,31.9h-15.3l10.4-37.8
		c0.8-2.7,1.3-5.3,1.5-7.8c0.4-5.1-0.7-9.6-7.1-9.6c-7.4,0-16.7,10-20.4,23.5l-8.5,31.6H652z"/>
	<path class="st3" d="M816.9,409.6c-6.9,3.4-15.9,5.2-24,5.2c-18.5,0-26.4-11.2-25-27.5c1.8-20.1,18.4-42,41.4-42
		c13.1,0,20.8,7.7,19.8,18.7c-1.5,17.1-19.9,22.6-45.6,22c-0.5,2.3-0.3,6.8,1,9.4c2.2,4.5,6.8,6.8,13.1,6.8c7.5,0,13.7-1.9,18.7-4.4
		L816.9,409.6z M806.3,357.3c-10,0-17.3,8.9-19.9,17c16.4,0.3,27.1-2.1,27.8-10C814.5,359.9,811.3,357.3,806.3,357.3z"/>
</g>
</svg>
