<?xml version="1.0" encoding="UTF-8"?>
<svg xmlns="http://www.w3.org/2000/svg" xmlns:xlink="http://www.w3.org/1999/xlink" width="1999pt" height="663pt" viewBox="0 0 1999 663" version="1.1">
<g id="surface1">
<path style=" stroke:none;fill-rule:nonzero;fill:rgb(4.313725%,25.098039%,41.960784%);fill-opacity:1;" d="M 1259.015625 0 L 1528.789062 0 C 1523.253906 1.769531 1517.316406 -0.355469 1511.628906 0.339844 C 1427.425781 0.09375 1343.21875 0.308594 1259.015625 0 Z M 1259.015625 0 "/>
<path style=" stroke:none;fill-rule:nonzero;fill:rgb(4.313725%,25.098039%,41.960784%);fill-opacity:1;" d="M 305.554688 0 L 478.914062 0 C 513.070312 87.027344 547.089844 174.09375 580.972656 261.199219 C 457.0625 286.289062 334.25 317.777344 215 359.835938 C 155.8125 380.523438 97.820312 404.480469 41.285156 431.597656 C 27.355469 438.101562 13.945312 445.65625 0 452.101562 L 0 451.933594 C 4.335938 446.546875 7.964844 440.640625 11.871094 434.933594 C 108.816406 290.910156 205.773438 146.875 302.742188 2.832031 L 305.554688 0 M 369.890625 153.996094 C 346.519531 191.238281 322.5 228.082031 298.867188 265.152344 C 335.769531 265.152344 372.699219 265.152344 409.65625 265.152344 C 397.109375 229.679688 384.550781 194.207031 371.984375 158.734375 C 371.351562 157.105469 370.660156 155.535156 369.890625 153.996094 Z M 369.890625 153.996094 "/>
<path style=" stroke:none;fill-rule:nonzero;fill:rgb(4.313725%,25.098039%,41.960784%);fill-opacity:1;" d="M 720.699219 0 L 859.09375 0 C 905.03125 49.808594 950.894531 99.679688 996.6875 149.613281 C 1059.300781 99.824219 1121.847656 49.953125 1184.332031 0 L 1259.015625 0 C 1343.21875 0.308594 1427.425781 0.09375 1511.628906 0.339844 C 1517.316406 -0.355469 1523.253906 1.769531 1528.789062 0 L 1529.496094 0 C 1530.726562 3.292969 1533.464844 5.660156 1535.648438 8.320312 C 1566.570312 44.488281 1597.230469 80.882812 1628.246094 116.972656 C 1656.878906 92.203125 1685.710938 67.652344 1714.359375 42.964844 C 1730.765625 28.550781 1747.878906 14.890625 1763.839844 0 L 1979.503906 0 C 1962.3125 15.84375 1943.84375 30.289062 1926.160156 45.578125 C 1879.546875 84.867188 1832.949219 124.164062 1786.367188 163.472656 C 1677.40625 163.164062 1568.445312 164.335938 1459.546875 168.089844 C 1413.960938 115.867188 1368.335938 63.667969 1322.675781 11.492188 C 1313.589844 66.070312 1304.378906 120.710938 1295.382812 175.226562 C 1089.332031 187.054688 883.542969 207.113281 680.136719 242.542969 C 693.667969 161.6875 707.191406 80.84375 720.699219 0 Z M 720.699219 0 "/>
<path style=" stroke:none;fill-rule:nonzero;fill:rgb(4.313725%,25.098039%,41.960784%);fill-opacity:1;" d="M 1480.796875 237.464844 C 1565.21875 235.449219 1649.683594 235.296875 1734.117188 235.617188 C 1797.941406 307.917969 1861.851562 380.128906 1925.851562 452.253906 L 1709.730469 452.253906 C 1671.800781 408.402344 1633.871094 364.558594 1595.941406 320.714844 C 1544.179688 364.609375 1492.382812 408.457031 1440.539062 452.253906 C 1321.371094 452.316406 1202.203125 452.316406 1083.042969 452.253906 C 1094.285156 385.800781 1104.894531 319.222656 1116.609375 252.863281 C 1172.367188 249.570312 1228.125 245.757812 1283.941406 243.941406 C 1273.5 305.179688 1263.429688 366.480469 1253.1875 427.75 C 1300.917969 387.753906 1348.664062 347.785156 1396.425781 307.839844 C 1424.5625 284.445312 1452.398438 260.570312 1480.796875 237.464844 Z M 1480.796875 237.464844 "/>
<path style=" stroke:none;fill-rule:nonzero;fill:rgb(4.313725%,25.098039%,41.960784%);fill-opacity:1;" d="M 670.527344 300.089844 C 726.980469 291.628906 783.570312 284.199219 840.300781 277.796875 C 830.5625 335.914062 820.859375 394.035156 811.195312 452.164062 C 699.621094 452.441406 588.042969 452.085938 476.46875 452.332031 C 463.105469 415.738281 450.421875 378.878906 437.121094 342.253906 C 491.214844 330.300781 545.757812 320.515625 600.332031 311.085938 C 614.707031 346.851562 628.425781 382.878906 642.539062 418.765625 C 644.476562 423.382812 645.875 428.257812 648.367188 432.613281 C 655.75 388.441406 663.136719 344.269531 670.527344 300.089844 Z M 670.527344 300.089844 "/>
<path style=" stroke:none;fill-rule:nonzero;fill:rgb(4.313725%,25.098039%,41.960784%);fill-opacity:1;" d="M 1951.761719 406.460938 C 1960.988281 396.230469 1978.132812 395.109375 1988.542969 404.0625 C 1994.292969 408.539062 1996.953125 415.550781 1999 422.289062 L 1999 428.304688 C 1996.722656 434.949219 1994.234375 442.054688 1988.40625 446.441406 C 1977.949219 455.148438 1960.957031 454.039062 1951.792969 443.980469 C 1942.042969 433.996094 1941.921875 416.414062 1951.792969 406.460938 M 1964.261719 403.800781 C 1952.636719 407.96875 1946.734375 422.441406 1951.484375 433.71875 C 1955.191406 444.316406 1967.816406 450.71875 1978.488281 446.75 C 1990.40625 442.75 1996.324219 427.902344 1991.511719 416.503906 C 1987.652344 405.9375 1974.859375 399.445312 1964.234375 403.800781 Z M 1964.261719 403.800781 "/>
<path style=" stroke:none;fill-rule:nonzero;fill:rgb(4.313725%,25.098039%,41.960784%);fill-opacity:1;" d="M 1961.21875 410.796875 C 1966.847656 409.796875 1973.089844 409.03125 1978.488281 411.460938 C 1984.144531 414.183594 1983.46875 423.503906 1977.578125 425.597656 C 1982.023438 429.519531 1981.640625 435.75 1983.332031 440.980469 L 1977.933594 440.980469 C 1976.703125 437.457031 1976.535156 433.597656 1974.996094 430.210938 C 1973.199219 427.273438 1969.351562 428.367188 1966.554688 428.027344 C 1966.554688 432.351562 1966.554688 436.6875 1966.554688 441.011719 L 1961.386719 440.933594 C 1961.386719 430.902344 1961.511719 420.859375 1961.28125 410.828125 M 1966.632812 413.90625 C 1966.496094 417.308594 1966.566406 420.710938 1966.847656 424.105469 C 1970.675781 424.105469 1977.332031 424.105469 1977.148438 418.660156 C 1976.566406 413.644531 1970.351562 413.550781 1966.570312 413.921875 Z M 1966.632812 413.90625 "/>
<path style=" stroke:none;fill-rule:nonzero;fill:rgb(4.313725%,25.098039%,41.960784%);fill-opacity:1;" d="M 1105.9375 646.292969 C 1129.875 601.714844 1153.824219 557.136719 1177.78125 512.554688 C 1180.59375 512.554688 1183.421875 512.554688 1186.253906 512.757812 C 1209.316406 557.367188 1232.8125 601.761719 1256.046875 646.277344 C 1248.5 646.09375 1240.902344 646.769531 1233.382812 645.894531 C 1227.941406 645.09375 1223.773438 640.863281 1221.433594 636.125 C 1216.007812 625.679688 1210.671875 615.207031 1205.195312 604.761719 L 1154.300781 604.761719 C 1156.6875 600.257812 1159.082031 595.761719 1161.480469 591.269531 C 1173.691406 591.269531 1185.898438 591.269531 1198.109375 591.269531 C 1190.542969 576.824219 1182.945312 562.382812 1175.472656 547.890625 C 1157.820312 580.707031 1140.203125 613.523438 1122.621094 646.339844 C 1117.054688 646.308594 1111.488281 646.292969 1105.9375 646.292969 Z M 1105.9375 646.292969 "/>
<path style=" stroke:none;fill-rule:nonzero;fill:rgb(4.313725%,25.098039%,41.960784%);fill-opacity:1;" d="M 1694.90625 512.769531 L 1703.332031 512.769531 C 1726.664062 557.257812 1749.960938 601.761719 1773.21875 646.277344 C 1763.300781 645.277344 1751.460938 649.15625 1743.128906 642.125 C 1737.453125 635.972656 1734.824219 627.636719 1730.582031 620.464844 C 1717.894531 596.285156 1705.410156 572.011719 1692.597656 547.890625 C 1684.910156 562.394531 1677.222656 576.808594 1669.410156 591.253906 C 1681.558594 591.253906 1693.707031 591.253906 1705.871094 591.253906 C 1708.191406 595.746094 1710.574219 600.222656 1712.941406 604.730469 C 1696.027344 604.730469 1679.113281 604.730469 1662.199219 604.730469 C 1654.511719 618.574219 1647.558594 632.851562 1639.472656 646.433594 C 1634.042969 646.15625 1628.617188 646.324219 1623.21875 646.277344 C 1647.1875 601.800781 1671.082031 557.300781 1694.90625 512.769531 Z M 1694.90625 512.769531 "/>
<path style=" stroke:none;fill-rule:nonzero;fill:rgb(4.313725%,25.098039%,41.960784%);fill-opacity:1;" d="M 955.074219 515.664062 L 983.167969 515.664062 C 983.167969 534.953125 983.167969 554.257812 983.167969 573.550781 L 1051.933594 573.550781 C 1051.933594 554.257812 1051.933594 534.96875 1051.933594 515.664062 C 1061.300781 515.664062 1070.648438 515.664062 1080.011719 515.664062 C 1080.085938 559.207031 1080.085938 602.753906 1080.011719 646.308594 C 1073.863281 646.140625 1067.710938 646.925781 1061.730469 645.371094 C 1056.546875 643.988281 1051.996094 639.402344 1051.980469 633.847656 C 1051.765625 617.757812 1051.980469 601.652344 1051.890625 585.5625 C 1028.992188 585.5625 1006.097656 585.5625 983.199219 585.5625 C 983.0625 605.835938 983.199219 626.097656 983.199219 646.355469 L 955.074219 646.355469 C 955.066406 602.761719 955.066406 559.195312 955.074219 515.664062 Z M 955.074219 515.664062 "/>
<path style=" stroke:none;fill-rule:nonzero;fill:rgb(4.313725%,25.098039%,41.960784%);fill-opacity:1;" d="M 1282.019531 515.492188 L 1331.640625 515.492188 C 1347.558594 515.769531 1364.949219 517.371094 1377.773438 527.921875 C 1387.429688 535.398438 1390.71875 549.367188 1386.351562 560.628906 C 1381.1875 573.78125 1367.316406 580.457031 1354.507812 584.039062 L 1407.804688 646.277344 C 1399.332031 646.125 1390.890625 646.679688 1382.371094 646.003906 C 1376.117188 645.335938 1370.410156 642.148438 1366.5625 637.171875 C 1352.429688 620.558594 1338.621094 603.652344 1324.460938 587.085938 C 1319.847656 586.132812 1314.988281 586.992188 1310.296875 586.578125 C 1309.898438 606.484375 1310.296875 626.390625 1310.128906 646.292969 L 1282.019531 646.292969 C 1282.019531 602.6875 1282.019531 559.105469 1282.019531 515.539062 M 1310.113281 527.292969 C 1310.113281 543.675781 1310.023438 560.074219 1310.113281 576.519531 C 1320.691406 576.332031 1331.78125 577.410156 1341.757812 573.070312 C 1349.109375 569.6875 1356.136719 563.6875 1357.691406 555.367188 C 1359.84375 544.859375 1353.078125 533.832031 1343.296875 530.015625 C 1332.808594 525.675781 1321.167969 527.785156 1310.113281 527.292969 Z M 1310.113281 527.292969 "/>
<path style=" stroke:none;fill-rule:nonzero;fill:rgb(4.313725%,25.098039%,41.960784%);fill-opacity:1;" d="M 1432.238281 515.832031 C 1441.601562 515.464844 1450.964844 515.753906 1460.347656 515.679688 C 1478.796875 547.765625 1497.433594 579.71875 1515.703125 611.882812 C 1534.355469 580.070312 1552.085938 547.722656 1570.382812 515.695312 C 1579.609375 515.585938 1588.714844 515.800781 1597.894531 515.570312 C 1598.277344 559.136719 1597.894531 602.714844 1598.046875 646.324219 C 1591.296875 646.078125 1584.207031 647.234375 1577.78125 644.710938 C 1572.699219 642.738281 1569.457031 637.726562 1569.738281 632.28125 C 1569.738281 603.628906 1569.738281 574.972656 1569.738281 546.320312 C 1550.761719 579.640625 1531.796875 612.96875 1512.84375 646.308594 L 1505.261719 646.308594 C 1486.027344 612.820312 1466.3125 579.609375 1447.335938 545.984375 C 1446.382812 579.394531 1447.199219 612.867188 1446.921875 646.308594 L 1432.328125 646.308594 C 1432.269531 602.808594 1432.53125 559.320312 1432.238281 515.832031 Z M 1432.238281 515.832031 "/>
<path style=" stroke:none;fill-rule:nonzero;fill:rgb(4.313725%,25.098039%,41.960784%);fill-opacity:1;" d="M 1798.714844 515.664062 C 1804.773438 515.664062 1810.847656 515.664062 1816.921875 515.664062 C 1847.828125 545.953125 1878.523438 576.441406 1909.628906 606.5 C 1909.550781 578.65625 1909.628906 550.8125 1909.628906 522.96875 C 1909.296875 519.726562 1911.421875 516.742188 1914.597656 516 C 1918.226562 515.339844 1921.960938 515.726562 1925.667969 515.539062 C 1926.035156 559.105469 1925.667969 602.699219 1925.820312 646.292969 C 1920.378906 646.171875 1914.058594 647.125 1909.597656 643.308594 C 1888.839844 622.542969 1868.25 601.605469 1847.523438 580.792969 C 1836.757812 570.226562 1826.625 558.875 1815.230469 548.90625 C 1815.230469 581.363281 1815.230469 613.835938 1815.230469 646.292969 L 1798.683594 646.292969 C 1798.683594 602.742188 1798.695312 559.195312 1798.714844 515.664062 Z M 1798.714844 515.664062 "/>
<path style=" stroke:none;fill-rule:nonzero;fill:rgb(4.313725%,25.098039%,41.960784%);fill-opacity:1;" d="M 844.53125 641.265625 C 844.746094 622.605469 844.132812 603.898438 844.824219 585.269531 L 849.019531 585.269531 C 849.019531 593.5625 849.113281 601.851562 849.019531 610.160156 C 855.171875 603.605469 866.105469 602.085938 873.5 607.4375 C 883.957031 615.4375 882.726562 634.082031 871.441406 640.816406 C 863.292969 645.710938 853.113281 644.539062 844.609375 641.234375 M 848.976562 615.3125 C 849.082031 623.003906 848.976562 630.605469 848.976562 638.25 C 855.710938 640.511719 863.796875 640.847656 869.640625 636.21875 C 878.792969 629.542969 877.699219 612.453125 866.566406 608.53125 C 859.847656 606.082031 853.203125 610.34375 848.976562 615.3125 Z M 848.976562 615.3125 "/>
<path style=" stroke:none;fill-rule:nonzero;fill:rgb(4.313725%,25.098039%,41.960784%);fill-opacity:1;" d="M 917.664062 605.300781 L 922.476562 604.976562 C 912.636719 624.328125 903.085938 643.832031 892.90625 663 L 888.570312 663 C 893.0625 653.878906 897.796875 644.878906 902.257812 635.757812 C 896.75 625.496094 891.183594 615.25 885.832031 604.914062 L 890.445312 605.3125 C 895.535156 613.773438 899.78125 622.742188 904.5625 631.464844 C 908.960938 622.742188 913.390625 614.066406 917.664062 605.300781 Z M 917.664062 605.300781 "/>
</g>
</svg>
